<svg xmlns="http://www.w3.org/2000/svg" width="1025" height="1023" viewBox="0 0 1025 1023">
<g>
<path d="M 547.50 754.82 C526.02,757.82 493.97,757.08 474.17,753.14 C439.23,746.17 395.93,726.76 372.50,707.55 C369.75,705.30 365.70,702.12 363.50,700.49 C356.55,695.33 338.26,677.05 329.72,666.73 C316.71,651.00 307.48,637.18 299.43,621.40 C290.10,603.10 287.19,595.84 282.18,578.39 C273.58,548.43 270.33,514.41 273.41,486.56 C275.52,467.50 277.67,456.15 281.96,441.50 C288.31,419.80 300.23,394.71 313.07,376.00 C340.67,335.79 379.87,303.57 424.00,284.83 C446.36,275.34 473.67,268.40 498.48,265.92 C513.50,264.42 546.58,265.26 561.00,267.52 C582.13,270.82 598.09,275.18 617.76,283.02 C634.56,289.72 643.42,294.22 643.81,296.27 C643.99,297.19 642.21,302.34 639.86,307.72 C635.98,316.60 635.55,318.40 635.20,327.27 C634.89,334.96 635.20,338.12 636.65,342.16 C640.50,352.85 651.35,361.12 661.85,361.37 C664.96,361.44 669.08,361.27 671.00,361.00 L 674.50 360.50 L 675.68 371.82 C676.71,381.69 677.38,384.20 680.86,391.33 C684.34,398.46 685.68,400.11 691.27,404.22 C699.87,410.53 701.70,411.14 714.50,411.87 L 725.50 412.50 L 724.84 436.50 L 728.49 442.50 C736.35,455.44 739.46,457.21 755.29,457.81 C766.81,458.24 767.11,458.31 768.42,460.87 C770.27,464.50 770.83,467.67 772.08,481.50 C773.15,493.41 773.31,513.91 772.42,523.50 C772.16,526.25 771.54,533.45 771.05,539.50 C770.22,549.63 767.82,562.87 766.39,565.18 C766.06,565.71 765.41,569.22 764.94,572.98 C764.46,576.75 763.16,581.33 762.04,583.16 C760.92,585.00 759.99,587.17 759.97,588.00 C759.94,589.32 756.55,596.66 753.28,602.50 C751.81,605.12 748.34,614.72 747.53,618.39 C747.18,619.98 745.57,622.44 743.95,623.86 C742.33,625.28 741.00,627.18 741.00,628.08 C741.00,628.98 738.86,632.60 736.25,636.13 C729.86,644.76 726.00,650.46 726.00,651.29 C726.00,652.86 705.56,676.12 697.70,683.50 C684.07,696.30 670.91,707.47 667.17,709.42 C663.16,711.51 650.93,719.56 647.36,722.45 C645.64,723.85 643.92,725.00 643.54,725.00 C643.16,725.00 639.82,726.77 636.11,728.93 C632.41,731.10 628.06,733.19 626.44,733.59 C624.82,733.98 622.43,735.14 621.12,736.15 C619.80,737.17 617.87,738.00 616.81,738.00 C615.75,738.00 611.65,739.40 607.70,741.11 C598.14,745.24 586.22,748.97 582.49,748.98 C580.84,748.99 577.91,749.48 575.99,750.07 C572.09,751.27 567.81,751.98 547.50,754.82 ZM 475.19 502.73 C476.21,503.96 481.20,504.12 507.95,503.75 C537.57,503.35 539.86,503.18 545.43,501.09 C571.38,491.32 588.70,472.14 593.14,448.24 C594.70,439.82 593.75,417.28 591.67,413.50 C590.76,411.85 590.01,409.91 590.01,409.18 C590.00,407.39 585.47,399.67 580.59,393.14 C575.60,386.45 568.11,380.29 558.73,375.17 C545.12,367.73 543.59,367.51 507.00,367.50 L 474.50 367.50 L 474.24 434.39 C474.05,485.46 474.27,501.62 475.19,502.73 ZM 541.24 474.93 C536.51,476.74 533.62,477.00 518.45,477.00 C502.29,477.00 501.00,476.86 500.04,475.07 C498.60,472.38 498.61,394.36 500.05,393.47 C500.63,393.11 509.06,392.78 518.80,392.72 L 536.50 392.62 L 544.43 396.44 C554.05,401.08 560.75,407.67 565.30,416.95 C568.28,423.06 568.50,424.21 568.50,434.00 C568.50,442.57 568.09,445.51 566.26,450.00 C561.71,461.15 552.03,470.80 541.24,474.93 ZM 558.61 620.79 L 559.25 624.00 L 586.59 624.00 C612.60,624.00 613.98,623.91 614.96,622.07 C616.18,619.80 616.32,613.04 615.18,611.26 C614.03,609.45 604.92,607.99 599.10,608.67 C593.80,609.30 589.00,607.39 589.00,604.64 C589.00,603.92 595.07,593.24 602.48,580.91 C609.90,568.59 615.98,557.71 615.98,556.75 C616.00,555.13 614.24,555.00 592.93,555.00 C580.23,555.00 569.07,555.43 568.09,555.95 C565.90,557.12 562.42,565.82 563.65,567.05 C564.13,567.53 568.80,568.28 574.02,568.72 C582.76,569.44 583.52,569.67 583.81,571.71 C583.99,572.93 582.98,575.89 581.56,578.30 C580.15,580.71 579.00,583.18 579.00,583.80 C579.00,584.41 575.62,589.93 571.50,596.07 C567.38,602.20 564.00,607.65 564.00,608.19 C564.00,608.73 562.64,611.06 560.98,613.37 C558.55,616.76 558.09,618.20 558.61,620.79 ZM 482.00 620.17 L 482.00 624.00 L 509.89 624.00 C534.41,624.00 537.86,623.81 538.39,622.42 C539.26,620.15 539.11,612.73 538.17,611.23 C537.65,610.42 533.14,609.65 525.57,609.09 C512.50,608.11 510.21,607.10 512.28,603.21 C512.95,601.96 518.45,592.75 524.50,582.75 C536.44,563.01 539.00,558.35 539.00,556.32 C539.00,555.26 534.25,555.00 515.15,555.00 C493.53,555.00 491.16,555.17 489.69,556.79 C487.26,559.47 484.73,566.13 485.75,567.15 C486.23,567.63 491.03,568.32 496.41,568.67 C503.47,569.14 506.33,569.71 506.73,570.73 C507.56,572.90 505.07,580.13 502.40,583.30 C501.09,584.86 498.55,589.14 496.76,592.81 C494.97,596.49 492.78,600.17 491.89,601.00 C491.01,601.82 489.54,604.57 488.62,607.10 C487.70,609.63 485.84,612.74 484.47,614.02 C482.68,615.71 482.00,617.40 482.00,620.17 ZM 688.20 624.09 C690.57,624.42 693.10,624.53 693.83,624.34 C694.56,624.16 696.25,624.00 697.58,624.00 C701.12,624.00 700.72,620.99 695.86,611.00 C682.51,583.62 669.63,558.30 668.41,557.03 C667.17,555.75 666.43,556.20 662.54,560.53 C660.09,563.26 658.06,566.40 658.02,567.50 C657.93,570.22 654.30,578.04 651.99,580.51 C650.95,581.62 649.35,584.32 648.43,586.51 C647.52,588.69 645.70,591.76 644.39,593.32 C643.07,594.88 642.00,596.92 642.00,597.87 C642.00,599.86 639.69,604.47 635.19,611.45 C633.03,614.79 632.00,617.62 632.00,620.20 L 632.00 624.00 L 640.47 624.00 C648.71,624.00 648.99,623.92 650.37,621.25 C653.43,615.33 654.64,614.91 667.59,615.22 L 679.44 615.50 L 681.67 619.50 C683.61,622.96 684.49,623.58 688.20,624.09 ZM 366.63 621.75 C367.23,624.00 367.24,624.00 390.01,624.00 C391.41,624.00 392.74,624.00 393.98,624.00 C407.73,624.02 412.07,624.02 413.42,622.01 C414.05,621.09 414.03,619.73 414.01,617.74 C414.00,617.35 414.00,616.94 414.00,616.50 C414.00,616.31 414.00,616.12 414.00,615.94 C414.00,613.22 414.01,611.57 413.20,610.56 C411.94,609.00 408.73,609.00 400.52,609.00 C400.16,609.00 399.80,609.00 399.43,609.00 C387.41,609.00 385.97,608.81 385.07,607.13 C384.50,606.06 384.02,595.05 383.95,581.18 C383.85,562.70 383.52,556.84 382.51,556.01 C381.10,554.84 368.76,554.41 367.04,555.47 C365.92,556.17 365.53,617.65 366.63,621.75 ZM 440.69 623.29 C440.95,623.73 444.62,623.95 448.83,623.79 L 456.50 623.50 L 456.76 590.62 C456.95,567.19 456.70,557.34 455.89,556.37 C455.12,555.44 452.40,555.00 447.38,555.00 L 440.00 555.00 L 439.83 584.25 C439.66,614.04 439.83,621.88 440.69,623.29 ZM 414.67 693.33 C415.03,693.70 417.78,694.00 420.77,694.00 C425.61,694.00 426.57,693.63 429.60,690.60 C431.47,688.73 433.00,686.48 433.00,685.60 C433.00,681.51 437.15,685.84 438.40,691.25 C439.02,693.90 439.27,694.00 445.52,694.00 C450.39,694.00 452.00,693.65 452.00,692.61 C452.00,691.84 450.93,690.95 449.62,690.62 C446.16,689.75 445.50,686.14 448.58,684.97 C451.31,683.93 451.75,682.22 449.50,681.36 C447.28,680.51 447.68,677.46 450.25,675.72 C453.76,673.34 451.31,671.84 444.48,672.20 C438.93,672.49 438.62,672.64 437.58,675.72 C436.99,677.49 435.71,679.72 434.75,680.68 C433.08,682.34 433.00,682.31 433.00,679.89 C433.00,678.46 431.89,676.30 430.45,674.95 C428.39,673.02 426.58,672.49 420.95,672.17 L 414.00 671.77 L 414.00 682.22 C414.00,687.97 414.30,692.97 414.67,693.33 ZM 607.43 692.67 C607.71,693.40 608.80,694.00 609.86,694.00 C611.26,694.00 611.95,693.05 612.44,690.46 C612.98,687.59 613.64,686.82 615.98,686.35 C619.12,685.73 622.98,682.64 623.03,680.71 C623.09,678.51 626.00,683.33 626.00,685.63 C626.00,686.87 626.45,688.16 627.00,688.50 C627.55,688.84 628.00,689.94 628.00,690.95 C628.00,693.19 630.50,694.33 631.80,692.69 C632.33,692.04 633.07,690.49 633.45,689.25 C633.83,688.01 634.94,687.00 635.93,687.00 C639.30,687.00 643.00,683.12 643.00,679.58 C643.00,675.12 640.31,672.99 633.85,672.34 C629.04,671.85 628.26,672.05 626.11,674.36 L 623.73 676.92 L 621.75 674.42 C619.98,672.15 619.18,671.94 613.64,672.21 L 607.50 672.50 L 607.21 681.92 C607.05,687.11 607.15,691.95 607.43,692.67 ZM 529.68 692.61 C530.44,694.58 532.27,694.33 534.27,692.00 C536.49,689.40 538.81,689.47 541.74,692.22 C544.86,695.16 546.39,693.09 544.26,688.81 C542.92,686.12 542.94,685.45 544.55,681.88 C546.29,678.03 546.28,677.86 544.32,675.21 C542.57,672.87 541.48,672.46 536.30,672.21 L 530.30 671.91 L 529.72 681.57 C529.41,686.88 529.39,691.85 529.68,692.61 ZM 582.55 690.76 C581.93,693.61 582.09,694.00 583.95,694.00 C585.11,694.00 586.32,693.33 586.64,692.50 C587.46,690.35 596.56,690.41 597.39,692.57 C598.16,694.59 602.57,694.07 602.32,692.00 C602.03,689.65 595.49,674.09 594.28,672.88 C592.07,670.67 589.17,672.97 587.45,678.30 C586.53,681.16 585.21,684.41 584.52,685.51 C583.83,686.62 582.94,688.99 582.55,690.76 ZM 509.71 693.37 C510.10,693.76 513.35,693.95 516.95,693.79 C522.23,693.56 523.54,693.17 523.81,691.75 C524.01,690.71 523.54,690.00 522.65,690.00 C520.53,690.00 516.42,684.66 518.18,684.19 C522.42,683.06 522.58,682.91 520.91,681.68 C520.04,681.03 518.82,679.54 518.19,678.37 C517.17,676.45 517.36,676.18 520.11,675.63 C525.28,674.59 522.98,672.53 516.30,672.21 C510.73,671.93 510.21,672.09 509.64,674.21 C508.79,677.39 508.84,692.51 509.71,693.37 ZM 492.82 691.75 C494.21,694.25 496.24,694.66 497.73,692.75 C499.06,691.05 505.00,675.20 505.00,673.34 C505.00,670.56 501.52,672.45 499.67,676.25 C497.18,681.34 494.48,681.25 492.38,676.00 C490.56,671.45 486.98,670.28 487.03,674.25 C487.05,676.74 490.86,688.22 492.82,691.75 ZM 557.40 693.23 C559.35,694.54 559.72,694.08 560.33,689.62 C560.66,687.21 562.07,683.09 563.46,680.47 C567.50,672.88 567.01,672.02 559.87,674.16 C556.59,675.14 555.73,675.06 554.17,673.66 C553.17,672.75 551.78,672.00 551.09,672.00 C549.36,672.00 550.68,677.64 553.20,681.06 C554.27,682.51 555.41,685.67 555.72,688.10 C556.04,690.52 556.79,692.83 557.40,693.23 ZM 458.45 692.73 C459.14,694.52 470.15,694.09 470.75,692.25 C470.98,691.56 470.54,691.00 469.77,691.00 C469.00,691.00 467.15,689.72 465.64,688.15 C463.49,685.91 462.76,683.93 462.21,678.90 C461.69,674.19 461.10,672.50 460.00,672.50 C458.79,672.50 458.44,674.34 458.21,681.92 C458.05,687.11 458.16,691.97 458.45,692.73 ZM 539.55 430.75 C540.23,432.95 541.74,432.10 544.04,428.25 C546.07,424.84 546.17,424.02 545.17,419.14 C543.91,413.05 542.58,411.00 539.89,411.00 C538.16,411.00 538.06,411.68 538.60,420.25 C538.91,425.34 539.34,430.06 539.55,430.75 ZM 548.64 427.40 C549.37,432.73 550.51,432.87 553.22,427.95 C555.81,423.25 555.19,415.38 552.02,412.81 C550.79,411.82 549.38,411.00 548.89,411.00 C547.86,411.00 547.71,420.61 548.64,427.40 ZM 477.67 693.33 C479.05,694.71 480.98,693.92 481.53,691.75 C481.84,690.51 481.96,685.67 481.80,681.00 C481.52,673.05 481.35,672.48 479.25,672.18 C477.04,671.87 477.00,672.05 477.00,682.26 C477.00,687.99 477.30,692.97 477.67,693.33 ZM 424.17 685.35 C421.52,687.74 419.14,687.39 418.41,684.50 C416.87,678.35 420.64,674.74 424.35,678.83 C426.50,681.21 426.44,683.29 424.17,685.35 ZM 668.09 597.50 C668.11,598.72 665.67,599.34 664.70,598.37 C663.33,597.00 664.03,595.87 666.04,596.18 C667.16,596.36 668.09,596.95 668.09,597.50 Z" fill="rgb(244,145,3)"/>
<path d="M 275.50 1016.81 C268.90,1017.05 205.62,1017.42 134.87,1017.64 L 6.24 1018.04 L 5.67 1015.27 C5.19,1012.91 5.52,625.69 6.02,613.00 C6.12,610.53 6.08,606.25 5.93,603.50 C5.26,591.12 6.29,572.49 7.77,570.24 C9.22,568.01 9.19,566.88 7.38,557.26 C6.43,552.17 7.61,549.42 11.54,547.55 C13.50,546.62 15.61,544.76 16.22,543.43 C17.26,541.14 17.81,541.00 25.59,541.00 C34.59,541.00 37.00,539.85 37.00,535.55 C37.00,534.08 38.28,532.26 40.50,530.57 C42.73,528.87 44.00,527.06 44.00,525.57 C44.00,522.73 46.71,516.00 47.85,516.00 C48.31,516.00 49.20,514.85 49.84,513.45 C50.92,511.09 50.78,510.82 48.00,509.85 C44.62,508.67 44.30,507.82 46.57,505.95 C47.43,505.23 48.77,503.41 49.55,501.89 C50.34,500.38 51.90,498.85 53.03,498.49 C54.25,498.10 55.32,496.66 55.66,494.94 C56.53,490.62 58.58,489.31 61.02,491.52 C62.11,492.50 63.00,493.92 63.00,494.65 C63.00,495.39 63.71,496.00 64.57,496.00 C65.67,496.00 65.95,495.42 65.52,494.05 C64.69,491.43 67.11,487.01 70.90,484.22 C73.45,482.35 74.00,481.24 74.00,478.03 C74.00,473.65 76.70,470.85 80.06,471.73 C81.34,472.06 82.00,471.72 82.00,470.74 C82.00,468.02 85.16,466.50 90.79,466.50 C96.55,466.50 97.37,465.90 98.41,461.00 C98.70,459.62 100.05,457.31 101.41,455.86 C102.77,454.40 103.64,452.97 103.35,452.68 C103.05,452.39 104.68,450.97 106.95,449.53 C109.23,448.09 111.35,446.26 111.65,445.46 C111.96,444.66 112.70,444.00 113.30,444.00 C115.36,444.00 120.99,439.49 120.99,437.83 C121.00,436.19 133.64,427.00 135.88,427.00 C136.50,427.00 137.00,426.52 137.00,425.94 C137.00,425.36 137.43,425.15 137.95,425.47 C138.48,425.79 139.94,424.24 141.20,422.01 C142.66,419.45 144.50,417.69 146.21,417.23 C147.71,416.83 152.66,413.11 157.21,408.97 C161.77,404.83 167.75,399.65 170.50,397.47 C173.25,395.29 175.85,392.96 176.28,392.29 C176.70,391.62 178.60,390.79 180.49,390.44 C182.98,389.97 184.48,388.85 185.93,386.39 C187.04,384.52 189.19,382.45 190.72,381.80 C192.25,381.14 196.89,377.43 201.03,373.55 C210.81,364.40 223.15,354.28 228.92,350.68 C231.44,349.11 233.95,347.28 234.50,346.62 C235.05,345.95 238.65,343.19 242.50,340.49 C246.35,337.79 251.52,333.93 254.00,331.91 C256.48,329.90 260.98,326.58 264.00,324.54 C267.02,322.50 271.75,318.89 274.50,316.51 C287.89,304.93 289.29,303.89 290.24,304.84 C290.88,305.48 288.08,309.45 282.27,316.16 C273.21,326.62 265.00,337.31 265.00,338.64 C265.00,339.03 262.44,343.22 259.32,347.93 C250.78,360.82 249.60,362.74 244.24,372.50 C235.43,388.54 229.72,402.46 223.65,422.68 C217.17,444.26 214.87,456.27 212.49,480.89 C208.10,526.23 215.03,577.30 231.16,618.50 C236.36,631.78 248.05,654.63 258.29,671.49 C270.24,691.19 295.12,720.11 314.80,737.21 C331.49,751.70 335.15,754.55 348.25,763.27 C388.93,790.33 432.64,806.61 483.50,813.65 C501.14,816.09 547.29,816.11 563.50,813.69 C569.55,812.78 577.65,811.57 581.50,811.00 C594.90,809.01 620.15,802.14 637.50,795.77 C651.50,790.63 667.18,783.20 683.19,774.13 C690.12,770.21 696.07,767.00 696.40,767.00 C697.84,767.00 696.79,769.19 694.35,771.26 C692.89,772.49 689.17,775.68 686.10,778.34 C683.02,781.00 675.33,786.57 669.00,790.72 C646.52,805.44 640.53,809.58 632.68,815.79 C628.30,819.24 621.53,823.92 617.61,826.18 C613.70,828.44 608.09,832.25 605.14,834.64 C602.18,837.04 599.10,839.00 598.28,839.00 C597.46,839.00 595.45,840.12 593.82,841.50 C592.18,842.88 590.32,844.00 589.67,844.00 C589.03,844.00 587.24,845.58 585.71,847.50 C584.17,849.42 582.07,851.00 581.03,851.00 C580.00,851.00 577.78,852.16 576.09,853.58 C574.41,854.99 571.43,856.60 569.47,857.14 C567.13,857.78 565.58,858.96 564.98,860.56 C564.47,861.90 563.36,863.00 562.52,863.00 C561.69,863.00 561.00,863.40 561.00,863.89 C561.00,864.37 559.49,865.49 557.64,866.37 C555.79,867.25 553.71,868.65 553.02,869.48 C552.32,870.32 551.29,871.00 550.72,871.00 C550.15,871.00 548.30,872.05 546.59,873.34 C544.89,874.63 542.35,875.97 540.94,876.31 C539.52,876.66 537.28,878.60 535.94,880.66 C534.55,882.76 532.20,884.78 530.50,885.33 C528.85,885.85 525.20,887.80 522.40,889.64 C519.59,891.49 516.97,893.00 516.56,893.00 C516.16,893.00 513.91,894.58 511.57,896.50 C509.22,898.42 506.81,900.00 506.23,900.00 C505.64,900.00 502.77,902.04 499.84,904.54 C496.92,907.04 493.39,909.35 492.01,909.69 C490.63,910.02 487.88,911.74 485.90,913.51 C483.88,915.32 480.60,917.04 478.40,917.45 C473.54,918.36 469.17,920.88 468.44,923.19 C468.13,924.17 466.19,925.41 464.09,925.98 C462.01,926.54 458.77,928.09 456.90,929.44 C449.31,934.88 435.13,942.85 429.21,945.00 C424.87,946.57 422.02,948.37 420.02,950.79 C417.73,953.57 416.44,954.29 413.85,954.21 C411.46,954.15 409.22,955.19 405.54,958.11 C395.35,966.16 392.69,968.00 391.24,968.00 C390.43,968.00 387.17,969.58 384.00,971.50 C380.83,973.42 377.71,975.00 377.07,975.00 C376.43,975.00 374.81,976.10 373.46,977.45 C371.03,979.88 362.89,984.00 360.51,984.00 C359.84,984.00 356.90,986.21 353.99,988.92 C349.31,993.26 348.40,993.72 346.18,992.88 C343.15,991.73 341.00,992.38 341.00,994.46 C341.00,995.29 339.24,997.09 337.09,998.45 C334.93,999.80 332.57,1001.76 331.84,1002.80 C331.10,1003.84 329.49,1005.22 328.25,1005.88 C327.01,1006.53 326.00,1007.74 326.00,1008.56 C326.00,1010.71 321.28,1012.19 315.50,1011.86 C312.64,1011.70 309.46,1012.15 308.07,1012.92 C306.73,1013.66 302.68,1014.45 299.07,1014.68 C295.45,1014.90 291.38,1015.38 290.00,1015.74 C288.62,1016.10 282.10,1016.58 275.50,1016.81 ZM 547.50 754.82 C567.81,751.98 572.09,751.27 575.99,750.07 C577.91,749.48 580.84,748.99 582.49,748.98 C586.22,748.97 598.14,745.24 607.70,741.11 C611.65,739.40 615.75,738.00 616.81,738.00 C617.87,738.00 619.80,737.17 621.12,736.15 C622.43,735.14 624.82,733.98 626.44,733.59 C628.06,733.19 632.41,731.10 636.11,728.93 C639.82,726.77 643.16,725.00 643.54,725.00 C643.92,725.00 645.64,723.85 647.36,722.45 C650.93,719.56 663.16,711.51 667.17,709.42 C670.91,707.47 684.07,696.30 697.70,683.50 C705.56,676.12 726.00,652.86 726.00,651.29 C726.00,650.46 729.86,644.76 736.25,636.13 C738.86,632.60 741.00,628.98 741.00,628.08 C741.00,627.18 742.33,625.28 743.95,623.86 C745.57,622.44 747.18,619.98 747.53,618.39 C748.34,614.72 751.81,605.12 753.28,602.50 C756.55,596.66 759.94,589.32 759.97,588.00 C759.99,587.17 760.92,585.00 762.04,583.16 C763.16,581.33 764.46,576.75 764.94,572.98 C765.41,569.22 766.06,565.71 766.39,565.18 C767.82,562.87 770.22,549.63 771.05,539.50 C771.54,533.45 772.16,526.25 772.42,523.50 C773.31,513.91 773.15,493.41 772.08,481.50 C770.83,467.67 770.27,464.50 768.42,460.87 C767.11,458.31 766.81,458.24 755.29,457.81 C749.24,457.58 745.05,457.18 741.74,456.05 C745.26,457.23 749.83,457.59 756.64,457.81 C771.78,458.29 771.12,457.84 772.91,469.00 C774.60,479.63 775.33,514.27 774.15,528.50 C769.41,585.60 745.06,638.38 704.09,680.35 C670.22,715.03 625.22,740.79 581.00,750.82 C566.73,754.06 561.86,754.95 552.50,756.04 C542.79,757.17 512.65,758.02 504.50,757.40 C500.29,757.07 491.69,755.92 483.71,754.68 C503.24,757.22 529.21,757.37 547.50,754.82 ZM 558.61 620.79 C558.09,618.20 558.55,616.76 560.98,613.37 C562.64,611.06 564.00,608.73 564.00,608.19 C564.00,607.65 567.38,602.20 571.50,596.07 C575.62,589.93 579.00,584.41 579.00,583.80 C579.00,583.18 580.15,580.71 581.56,578.30 C582.98,575.89 583.99,572.93 583.81,571.71 C583.52,569.67 582.76,569.44 574.02,568.72 C571.74,568.53 569.58,568.28 567.81,568.02 C570.22,568.31 573.48,568.58 576.93,568.74 C585.40,569.13 589.00,569.65 588.79,570.45 C588.57,571.35 573.92,596.06 565.69,609.43 C560.10,618.52 559.00,620.62 559.00,622.20 C559.00,623.89 560.66,624.00 586.46,624.00 L 559.25 624.00 ZM 482.00 620.17 C482.00,617.40 482.68,615.71 484.47,614.02 C485.84,612.74 487.70,609.63 488.62,607.10 C489.54,604.57 491.01,601.82 491.89,601.00 C492.78,600.17 494.97,596.49 496.76,592.81 C498.55,589.14 501.09,584.86 502.40,583.30 C505.07,580.13 507.56,572.90 506.73,570.73 C506.33,569.71 503.47,569.14 496.41,568.67 C493.81,568.50 491.35,568.25 489.44,567.99 C491.97,568.30 495.56,568.58 499.40,568.75 C506.44,569.05 512.00,569.72 512.00,570.25 C512.00,571.29 503.74,585.26 490.32,606.94 C485.74,614.34 482.00,621.20 482.00,622.19 C482.00,623.89 483.67,624.00 509.89,624.00 L 482.00 624.00 ZM 632.02 622.75 C632.01,623.65 634.35,624.00 640.47,624.00 L 632.00 624.00 L 632.00 620.20 C632.00,617.62 633.03,614.79 635.19,611.45 C639.69,604.47 642.00,599.86 642.00,597.87 C642.00,596.92 643.07,594.88 644.39,593.32 C645.70,591.76 647.52,588.69 648.43,586.51 C649.35,584.32 650.95,581.62 651.99,580.51 C654.30,578.04 657.93,570.22 658.02,567.50 C658.06,566.40 660.09,563.26 662.54,560.53 C663.64,559.31 664.48,558.40 665.16,557.74 C663.72,560.11 660.92,565.39 658.01,571.32 C654.18,579.12 646.77,593.60 641.54,603.50 C636.32,613.40 632.04,622.06 632.02,622.75 ZM 671.00 599.22 C671.00,601.80 670.71,602.00 666.97,602.00 C664.21,602.00 662.75,601.50 662.33,600.41 C661.51,598.29 664.58,592.00 666.43,592.00 C668.50,592.00 671.00,595.95 671.00,599.22 ZM 629.18 693.11 C630.11,693.69 631.11,693.42 631.93,692.52 C631.89,692.58 631.85,692.64 631.80,692.69 C630.50,694.33 628.00,693.19 628.00,690.95 C628.00,689.94 627.55,688.84 627.00,688.50 C626.45,688.16 626.00,686.87 626.00,685.63 C626.00,683.33 623.09,678.51 623.03,680.71 C623.01,681.64 622.10,682.83 620.82,683.89 C622.21,682.51 623.00,680.68 623.00,678.62 C623.00,677.26 622.81,676.14 622.41,675.24 L 623.73 676.92 L 626.11 674.36 C628.26,672.05 629.04,671.85 633.85,672.34 C635.78,672.53 637.38,672.86 638.66,673.34 C637.36,672.92 635.75,672.69 633.80,672.64 L 628.50 672.50 L 628.21 682.42 C628.00,689.55 628.28,692.55 629.18,693.11 ZM 424.17 685.35 C426.44,683.29 426.50,681.21 424.35,678.83 C421.55,675.74 418.71,677.05 418.15,680.53 C418.12,679.10 418.18,677.97 418.36,677.52 C419.12,675.51 424.41,675.55 426.43,677.57 C428.62,679.76 428.46,686.27 426.17,688.35 C425.17,689.26 423.17,690.00 421.74,690.00 C419.39,690.00 419.10,689.59 418.49,684.80 C419.31,687.41 421.62,687.66 424.17,685.35 ZM 440.76 672.50 C441.64,672.36 442.83,672.28 444.48,672.20 C451.31,671.84 453.76,673.34 450.25,675.72 C447.68,677.46 447.28,680.51 449.50,681.36 C451.75,682.22 451.31,683.93 448.58,684.97 C445.59,686.11 446.13,689.54 449.32,690.54 C448.20,690.21 446.80,690.02 445.25,690.01 C443.54,690.00 443.00,689.42 443.00,687.56 C443.00,685.46 443.53,685.08 446.75,684.81 C449.28,684.60 450.50,684.01 450.50,683.00 C450.50,681.99 449.28,681.40 446.75,681.19 C443.55,680.93 443.00,680.53 443.00,678.50 C443.00,676.41 443.53,676.08 447.25,675.81 C450.22,675.59 451.50,675.05 451.50,674.00 C451.50,672.82 450.11,672.50 445.00,672.50 ZM 519.09 675.85 C517.33,676.29 517.31,676.72 518.19,678.37 C518.82,679.54 520.04,681.03 520.91,681.68 C522.58,682.91 522.42,683.06 518.18,684.19 C516.42,684.66 520.53,690.00 522.65,690.00 C523.54,690.00 524.01,690.71 523.81,691.75 C523.81,691.76 523.81,691.77 523.81,691.78 C524.05,690.43 523.18,690.05 519.31,689.81 C514.93,689.53 514.50,689.28 514.50,687.00 C514.50,684.94 515.08,684.41 517.79,684.00 C519.60,683.72 521.08,683.05 521.08,682.50 C521.08,681.95 519.60,681.28 517.79,681.00 C515.33,680.63 514.42,679.93 514.18,678.25 C513.90,676.31 514.31,676.00 517.18,675.98 C517.80,675.98 518.46,675.93 519.09,675.85 ZM 614.19 610.49 C613.33,610.15 612.00,610.00 610.05,610.00 C607.44,610.00 601.19,609.71 596.15,609.35 C586.33,608.65 585.17,607.75 588.50,603.44 C592.08,598.82 615.28,559.37 615.98,556.75 C615.98,557.71 609.90,568.59 602.48,580.91 C595.07,593.24 589.00,603.92 589.00,604.64 C589.00,607.39 593.80,609.30 599.10,608.67 C604.06,608.09 611.41,609.07 614.19,610.49 ZM 637.07 681.96 C633.55,683.85 632.00,683.06 632.00,679.39 C632.00,676.55 633.41,675.63 636.56,676.42 C639.54,677.17 639.84,680.48 637.07,681.96 ZM 432.37 677.61 C432.77,678.42 433.00,679.23 433.00,679.89 C433.00,682.31 433.08,682.34 434.75,680.68 C435.71,679.72 436.99,677.49 437.58,675.72 C437.89,674.82 438.13,674.17 438.46,673.69 L 438.20 681.00 C438.06,685.07 438.14,689.26 438.36,691.09 C437.07,685.76 433.00,681.55 433.00,685.60 C433.00,686.02 432.64,686.77 432.06,687.63 C432.84,686.27 433.00,684.84 433.00,682.27 C433.00,680.42 432.81,678.88 432.37,677.61 ZM 539.42 681.39 C535.90,682.74 534.00,681.87 534.00,678.89 C534.00,676.53 535.58,675.68 538.56,676.42 C541.34,677.12 541.91,680.44 539.42,681.39 ZM 616.84 682.12 C613.70,684.11 611.42,682.24 612.18,678.31 C612.73,675.42 617.42,675.90 617.84,678.89 C618.02,680.20 617.57,681.66 616.84,682.12 ZM 461.28 673.82 C461.65,674.82 461.94,676.45 462.21,678.90 C462.76,683.93 463.49,685.91 465.64,688.15 C467.15,689.72 469.00,691.00 469.77,691.00 C470.54,691.00 470.98,691.56 470.75,692.25 C471.04,691.39 469.92,691.00 467.14,691.00 C463.17,691.00 463.12,690.95 462.56,686.75 C462.25,684.41 461.88,680.25 461.75,677.50 C461.66,675.81 461.52,674.61 461.28,673.82 ZM 501.23 673.86 C500.32,675.16 499.42,677.04 498.68,679.34 C497.68,682.45 496.48,685.00 496.01,685.00 C495.54,685.00 494.64,683.31 494.00,681.25 C492.99,677.95 492.25,675.77 491.57,674.37 C491.87,674.85 492.14,675.39 492.38,676.00 C494.48,681.25 497.18,681.34 499.67,676.25 C500.12,675.33 500.66,674.52 501.23,673.86 ZM 553.04 672.80 C553.43,673.05 553.83,673.34 554.17,673.66 C555.73,675.06 556.59,675.14 559.87,674.16 C561.25,673.74 562.39,673.44 563.29,673.28 C562.33,673.70 561.36,674.54 560.80,675.68 C558.91,679.57 557.51,679.53 555.16,675.54 C554.44,674.32 553.71,673.40 553.04,672.80 ZM 530.90 693.89 C532.09,694.16 533.58,692.76 533.83,690.49 C534.38,685.47 535.68,685.38 539.94,690.08 C543.01,693.47 544.15,694.19 544.84,693.15 C545.42,692.29 545.20,690.71 544.26,688.81 C546.39,693.09 544.86,695.16 541.74,692.22 C538.81,689.47 536.49,689.40 534.27,692.00 C533.00,693.48 531.80,694.12 530.90,693.89 ZM 535.24 564.66 C533.04,568.56 529.63,574.26 524.50,582.75 C518.45,592.75 512.95,601.96 512.28,603.21 C510.21,607.10 512.50,608.11 525.57,609.09 C527.02,609.20 528.36,609.31 529.58,609.43 C527.90,609.35 525.92,609.28 523.59,609.20 C508.22,608.68 508.09,608.59 512.87,601.66 C514.87,598.76 528.83,575.61 535.24,564.66 ZM 595.00 685.00 C595.00,685.48 594.10,685.81 593.00,685.73 C591.53,685.61 591.00,684.86 591.00,682.85 C591.00,679.11 592.79,678.31 594.00,681.50 C594.55,682.95 595.00,684.52 595.00,685.00 ZM 668.09 597.50 C668.09,596.95 667.16,596.36 666.04,596.18 C664.03,595.87 663.33,597.00 664.70,598.37 C665.67,599.34 668.11,598.72 668.09,597.50 ZM 471.46 752.58 C471.13,752.51 470.81,752.45 470.50,752.38 C457.40,749.69 442.37,744.77 427.65,738.64 C442.28,744.66 457.47,749.57 471.46,752.58 ZM 681.39 581.75 C685.72,590.38 690.76,600.54 695.86,611.00 C697.77,614.93 698.99,617.78 699.56,619.79 C697.88,614.91 692.66,604.41 681.39,581.75 ZM 502.80 680.55 C504.19,676.36 505.08,672.74 504.65,672.32 C504.53,672.20 504.40,672.10 504.26,672.04 C504.71,672.13 505.00,672.54 505.00,673.34 C505.00,674.09 504.04,677.10 502.80,680.55 ZM 493.66 692.93 C495.26,694.58 497.28,693.69 498.90,690.48 C498.40,691.61 497.98,692.43 497.73,692.75 C496.52,694.30 494.95,694.32 493.66,692.93 ZM 538.60 621.71 C538.54,621.98 538.47,622.22 538.39,622.42 C538.12,623.14 537.06,623.54 532.72,623.75 C536.27,623.48 537.84,622.94 538.52,621.84 C538.55,621.80 538.57,621.75 538.60,621.71 ZM 489.53 556.98 C489.58,556.91 489.64,556.85 489.69,556.79 C490.60,555.78 491.85,555.34 497.80,555.14 C493.22,555.35 490.95,555.83 489.53,556.98 ZM 620.89 673.42 C619.60,672.53 617.66,672.14 614.91,672.15 C618.49,672.02 619.69,672.23 620.89,673.42 ZM 667.41 556.41 C667.76,556.45 668.06,556.68 668.41,557.03 C668.63,557.26 669.24,558.29 670.16,559.98 C668.90,557.85 668.07,556.80 667.41,556.41 ZM 534.85 555.30 C537.95,555.50 539.00,555.82 539.00,556.32 C539.00,556.39 539.00,556.45 538.99,556.52 C538.60,555.89 537.40,555.52 534.85,555.30 ZM 489.24 672.02 C489.12,672.01 489.00,672.00 488.88,672.00 C487.59,672.00 487.01,672.71 487.03,674.25 C487.00,672.13 488.02,671.47 489.24,672.02 ZM 428.74 673.66 C426.90,672.81 424.36,672.36 420.95,672.17 C425.05,672.40 427.12,672.74 428.74,673.66 ZM 550.55 675.21 C550.93,676.98 552.13,679.61 553.20,681.06 C550.73,677.72 549.42,672.25 550.98,672.01 C550.37,672.30 550.14,673.36 550.55,675.21 ZM 565.99 674.49 C565.90,675.63 565.02,677.55 563.46,680.47 C564.78,677.99 565.88,675.39 565.99,674.49 ZM 537.22 610.69 C537.73,610.87 538.05,611.05 538.17,611.23 C538.29,611.43 538.40,611.72 538.49,612.08 C538.23,611.49 537.83,611.04 537.22,610.69 ZM 521.88 675.10 C522.51,674.70 522.84,674.31 522.89,673.96 C523.09,674.39 522.71,674.83 521.67,675.21 C521.75,675.17 521.82,675.14 521.88,675.10 ZM 563.94 563.30 C563.44,565.02 563.28,566.52 563.71,567.10 C563.68,567.08 563.67,567.07 563.65,567.05 C563.19,566.59 563.39,565.07 563.94,563.30 ZM 512.25 672.13 C510.45,672.35 510.00,672.89 509.64,674.21 C510.02,672.79 510.38,672.25 512.25,672.13 ZM 633.77 688.52 C634.25,687.57 635.02,687.00 635.88,687.00 C637.66,687.00 639.51,685.96 640.88,684.46 C639.51,685.96 637.68,687.00 635.93,687.00 C635.14,687.00 634.28,687.63 633.77,688.52 ZM 615.40 555.80 C613.89,555.09 608.81,555.00 592.93,555.00 C608.99,555.00 613.94,555.08 615.40,555.80 ZM 439.29 693.30 C440.10,693.91 441.72,694.00 445.52,694.00 C441.65,694.00 440.07,693.96 439.29,693.30 ZM 529.68 692.61 C529.39,691.85 529.41,686.89 529.72,681.59 C529.41,686.86 529.40,691.81 529.69,692.64 C529.69,692.63 529.68,692.62 529.68,692.61 ZM 449.62 690.62 C450.26,690.78 450.84,691.07 451.27,691.42 C450.83,691.09 450.22,690.81 449.47,690.58 C449.52,690.59 449.57,690.61 449.62,690.62 ZM 485.78 567.18 C485.77,567.17 485.76,567.16 485.75,567.15 C485.64,567.04 485.57,566.87 485.54,566.64 C485.59,566.86 485.67,567.04 485.78,567.18 ZM 566.00 674.25 C565.99,674.09 565.96,673.94 565.92,673.81 C565.97,673.94 565.99,674.08 566.00,674.25 Z" fill="rgb(211,141,48)"/>
<path d="M 275.50 1016.81 C282.10,1016.58 288.62,1016.10 290.00,1015.74 C291.38,1015.38 295.45,1014.90 299.07,1014.68 C302.68,1014.45 306.73,1013.66 308.07,1012.92 C309.46,1012.15 312.64,1011.70 315.50,1011.86 C321.28,1012.19 326.00,1010.71 326.00,1008.56 C326.00,1007.74 327.01,1006.53 328.25,1005.88 C329.49,1005.22 331.10,1003.84 331.84,1002.80 C332.57,1001.76 334.93,999.80 337.09,998.45 C339.24,997.09 341.00,995.29 341.00,994.46 C341.00,992.38 343.15,991.73 346.18,992.88 C348.40,993.72 349.31,993.26 353.99,988.92 C356.90,986.21 359.84,984.00 360.51,984.00 C362.89,984.00 371.03,979.88 373.46,977.45 C374.81,976.10 376.43,975.00 377.07,975.00 C377.71,975.00 380.83,973.42 384.00,971.50 C387.17,969.58 390.43,968.00 391.24,968.00 C392.69,968.00 395.35,966.16 405.54,958.11 C409.22,955.19 411.46,954.15 413.85,954.21 C416.44,954.29 417.73,953.57 420.02,950.79 C422.02,948.37 424.87,946.57 429.21,945.00 C435.13,942.85 449.31,934.88 456.90,929.44 C458.77,928.09 462.01,926.54 464.09,925.98 C466.19,925.41 468.13,924.17 468.44,923.19 C469.17,920.88 473.54,918.36 478.40,917.45 C480.60,917.04 483.88,915.32 485.90,913.51 C487.88,911.74 490.63,910.02 492.01,909.69 C493.39,909.35 496.92,907.04 499.84,904.54 C502.77,902.04 505.64,900.00 506.23,900.00 C506.81,900.00 509.22,898.42 511.57,896.50 C513.91,894.58 516.16,893.00 516.56,893.00 C516.97,893.00 519.59,891.49 522.40,889.64 C525.20,887.80 528.85,885.85 530.50,885.33 C532.20,884.78 534.55,882.76 535.94,880.66 C537.28,878.60 539.52,876.66 540.94,876.31 C542.35,875.97 544.89,874.63 546.59,873.34 C548.30,872.05 550.15,871.00 550.72,871.00 C551.29,871.00 552.32,870.32 553.02,869.48 C553.71,868.65 555.79,867.25 557.64,866.37 C559.49,865.49 561.00,864.37 561.00,863.89 C561.00,863.40 561.69,863.00 562.52,863.00 C563.36,863.00 564.47,861.90 564.98,860.56 C565.58,858.96 567.13,857.78 569.47,857.14 C571.43,856.60 574.41,854.99 576.09,853.58 C577.78,852.16 580.00,851.00 581.03,851.00 C582.07,851.00 584.17,849.42 585.71,847.50 C587.24,845.58 589.03,844.00 589.67,844.00 C590.32,844.00 592.18,842.88 593.82,841.50 C595.45,840.12 597.46,839.00 598.28,839.00 C599.10,839.00 602.18,837.04 605.14,834.64 C608.09,832.25 613.70,828.44 617.61,826.18 C621.53,823.92 628.30,819.24 632.68,815.79 C640.53,809.58 646.52,805.44 669.00,790.72 C675.33,786.57 683.02,781.00 686.10,778.34 C689.17,775.68 692.89,772.49 694.35,771.26 C696.79,769.19 697.84,767.00 696.40,767.00 C696.07,767.00 690.12,770.21 683.19,774.13 C673.61,779.56 664.15,784.40 655.09,788.51 C656.23,787.89 657.07,787.35 657.56,786.89 C658.70,785.85 659.99,785.00 660.43,785.00 C662.13,785.00 687.97,770.30 697.00,764.19 C730.44,741.58 762.03,710.15 785.15,676.50 C790.65,668.50 805.00,644.73 805.00,643.63 C805.00,643.31 806.62,639.55 808.61,635.27 C816.53,618.18 820.95,606.50 824.91,592.19 C839.71,538.71 839.56,482.44 824.47,428.16 C822.54,421.20 820.53,414.60 820.00,413.50 C819.48,412.40 818.11,408.80 816.95,405.50 C814.59,398.73 815.05,399.83 807.46,383.00 C789.54,343.25 758.36,304.03 721.50,274.86 C706.78,263.20 688.20,251.06 675.35,244.70 C672.68,243.38 668.70,241.34 666.50,240.17 C650.61,231.74 620.59,220.82 600.50,216.15 C575.22,210.29 554.97,208.04 527.50,208.03 C479.98,208.03 444.77,214.29 405.50,229.71 C352.67,250.46 307.28,285.14 268.97,334.00 C267.40,336.01 264.70,339.83 261.50,344.58 C263.55,341.38 265.00,338.94 265.00,338.64 C265.00,337.31 273.21,326.62 282.27,316.16 C288.08,309.45 290.88,305.48 290.24,304.84 C289.29,303.89 287.89,304.93 274.50,316.51 C271.75,318.89 267.02,322.50 264.00,324.54 C260.98,326.58 256.48,329.90 254.00,331.91 C251.52,333.93 246.35,337.79 242.50,340.49 C238.65,343.19 235.05,345.95 234.50,346.62 C233.95,347.28 231.44,349.11 228.92,350.68 C223.15,354.28 210.81,364.40 201.03,373.55 C196.89,377.43 192.25,381.14 190.72,381.80 C189.19,382.45 187.04,384.52 185.93,386.39 C184.48,388.85 182.98,389.97 180.49,390.44 C178.60,390.79 176.70,391.62 176.28,392.29 C175.85,392.96 173.25,395.29 170.50,397.47 C167.75,399.65 161.77,404.83 157.21,408.97 C152.66,413.11 147.71,416.83 146.21,417.23 C144.50,417.69 142.66,419.45 141.20,422.01 C139.94,424.24 138.48,425.79 137.95,425.47 C137.43,425.15 137.00,425.36 137.00,425.94 C137.00,426.52 136.50,427.00 135.88,427.00 C133.64,427.00 121.00,436.19 120.99,437.83 C120.99,439.49 115.36,444.00 113.30,444.00 C112.70,444.00 111.96,444.66 111.65,445.46 C111.35,446.26 109.23,448.09 106.95,449.53 C104.68,450.97 103.05,452.39 103.35,452.68 C103.64,452.97 102.77,454.40 101.41,455.86 C100.05,457.31 98.70,459.62 98.41,461.00 C97.37,465.90 96.55,466.50 90.79,466.50 C85.16,466.50 82.00,468.02 82.00,470.74 C82.00,471.72 81.34,472.06 80.06,471.73 C76.70,470.85 74.00,473.65 74.00,478.03 C74.00,481.24 73.45,482.35 70.90,484.22 C67.11,487.01 64.69,491.43 65.52,494.05 C65.95,495.42 65.67,496.00 64.57,496.00 C63.71,496.00 63.00,495.39 63.00,494.65 C63.00,493.92 62.11,492.50 61.02,491.52 C58.58,489.31 56.53,490.62 55.66,494.94 C55.32,496.66 54.25,498.10 53.03,498.49 C51.90,498.85 50.34,500.38 49.55,501.89 C48.77,503.41 47.43,505.23 46.57,505.95 C44.30,507.82 44.62,508.67 48.00,509.85 C50.78,510.82 50.92,511.09 49.84,513.45 C49.20,514.85 48.31,516.00 47.85,516.00 C46.71,516.00 44.00,522.73 44.00,525.57 C44.00,527.06 42.73,528.87 40.50,530.57 C38.28,532.26 37.00,534.08 37.00,535.55 C37.00,539.85 34.59,541.00 25.59,541.00 C17.81,541.00 17.26,541.14 16.22,543.43 C15.61,544.76 13.50,546.62 11.54,547.55 C7.61,549.42 6.43,552.17 7.38,557.26 C9.19,566.88 9.22,568.01 7.77,570.24 C6.29,572.49 5.26,591.12 5.93,603.50 C6.08,606.25 6.12,610.53 6.02,613.00 C5.56,624.87 5.23,964.36 5.59,1010.18 C5.31,975.09 5.07,762.31 5.05,508.25 L 4.99 4.00 L 1020.00 4.00 L 1020.00 1018.00 L 20.22 1018.00 L 134.87 1017.64 C205.62,1017.42 268.90,1017.05 275.50,1016.81 ZM 471.46 752.58 C472.37,752.77 473.28,752.96 474.17,753.14 C477.11,753.72 480.31,754.24 483.71,754.68 C491.69,755.92 500.29,757.07 504.50,757.40 C512.65,758.02 542.79,757.17 552.50,756.04 C561.86,754.95 566.73,754.06 581.00,750.82 C625.22,740.79 670.22,715.03 704.09,680.35 C745.06,638.38 769.41,585.60 774.15,528.50 C775.26,515.12 774.68,483.69 773.20,471.15 C774.74,482.02 775.98,497.17 775.97,508.50 C775.96,534.95 772.65,557.28 765.24,581.00 C760.68,595.57 759.03,599.73 751.95,614.50 C733.26,653.51 699.35,692.51 664.50,715.09 C653.35,722.32 651.84,723.24 645.50,726.72 C612.87,744.58 583.32,753.97 548.50,757.53 C535.87,758.82 512.76,759.20 501.00,758.31 C492.49,757.66 468.49,753.89 463.00,752.33 C440.50,745.94 412.41,735.02 402.40,728.79 C400.26,727.45 397.66,726.04 396.63,725.66 C391.96,723.93 371.43,709.64 361.00,700.86 C348.05,689.95 331.85,673.83 326.84,666.86 C325.00,664.31 321.34,659.59 318.69,656.36 C316.05,653.14 313.18,649.15 312.33,647.50 C311.47,645.85 309.95,643.60 308.96,642.50 C306.57,639.86 296.25,620.08 290.61,607.37 C281.05,585.79 273.72,557.94 271.89,536.25 C270.45,519.12 271.31,481.73 273.40,470.25 C275.94,456.32 281.35,434.62 283.52,429.59 C284.26,427.89 285.88,423.80 287.13,420.50 C288.39,417.20 289.71,414.05 290.07,413.50 C290.44,412.95 291.31,410.70 292.01,408.50 C292.71,406.30 294.12,403.31 295.14,401.85 C296.16,400.39 297.00,398.84 297.00,398.42 C297.00,397.99 300.09,392.66 303.87,386.57 C307.65,380.48 311.28,374.46 311.93,373.20 C315.81,365.71 343.68,334.79 354.50,325.97 C357.80,323.28 362.98,319.01 366.00,316.48 C371.76,311.65 380.21,305.65 385.17,302.85 C386.78,301.95 389.76,300.05 391.80,298.65 C397.34,294.82 427.49,280.60 435.50,278.04 C439.35,276.82 444.08,275.20 446.00,274.45 C449.50,273.09 457.42,271.05 474.65,267.07 C479.68,265.90 490.25,264.46 498.15,263.86 C515.48,262.53 549.05,263.42 561.00,265.52 C588.34,270.34 607.13,275.85 625.50,284.47 C629.35,286.27 635.12,288.98 638.32,290.48 C641.52,291.98 644.36,293.77 644.62,294.45 C644.87,295.11 643.06,300.31 640.55,306.12 C642.55,301.35 643.97,297.10 643.81,296.27 C643.42,294.22 634.56,289.72 617.76,283.02 C598.09,275.18 582.13,270.82 561.00,267.52 C546.58,265.26 513.50,264.42 498.48,265.92 C473.67,268.40 446.36,275.34 424.00,284.83 C379.87,303.57 340.67,335.79 313.07,376.00 C300.23,394.71 288.31,419.80 281.96,441.50 C277.67,456.15 275.52,467.50 273.41,486.56 C270.33,514.41 273.58,548.43 282.18,578.39 C287.19,595.84 290.10,603.10 299.43,621.40 C307.48,637.18 316.71,651.00 329.72,666.73 C338.26,677.05 356.55,695.33 363.50,700.49 C365.70,702.12 369.75,705.30 372.50,707.55 C386.05,718.66 406.26,729.84 427.65,738.64 L 427.65 738.65 C442.37,744.77 457.40,749.69 470.50,752.38 C470.81,752.45 471.13,752.51 471.46,752.58 ZM 535.24 564.66 C528.83,575.61 514.87,598.76 512.87,601.66 C508.09,608.59 508.22,608.68 523.59,609.20 C525.92,609.28 527.90,609.35 529.58,609.43 C533.29,609.81 535.89,610.23 537.22,610.69 C537.83,611.04 538.23,611.49 538.49,612.08 C539.07,614.30 539.14,619.28 538.60,621.71 C538.57,621.75 538.55,621.80 538.52,621.84 C537.84,622.94 536.27,623.48 532.72,623.75 C528.66,623.96 521.73,624.00 509.89,624.00 C483.67,624.00 482.00,623.89 482.00,622.19 C482.00,621.20 485.74,614.34 490.32,606.94 C503.74,585.26 512.00,571.29 512.00,570.25 C512.00,569.72 506.44,569.05 499.40,568.75 C495.56,568.58 491.97,568.30 489.45,567.99 L 489.44 567.99 C487.48,567.71 486.11,567.42 485.78,567.18 C485.67,567.04 485.59,566.86 485.54,566.64 C485.27,564.81 487.41,559.47 489.53,556.98 C490.95,555.83 493.22,555.35 497.80,555.14 C501.47,555.02 506.91,555.00 515.15,555.00 C525.27,555.00 531.36,555.07 534.85,555.30 C537.40,555.52 538.60,555.89 538.99,556.52 C538.90,557.71 538.01,559.78 535.24,564.66 ZM 688.20 624.09 C684.49,623.58 683.61,622.96 681.67,619.50 L 679.44 615.50 L 667.59 615.22 C654.64,614.91 653.43,615.33 650.37,621.25 C648.99,623.92 648.71,624.00 640.47,624.00 C634.35,624.00 632.01,623.65 632.02,622.75 C632.04,622.06 636.32,613.40 641.54,603.50 C646.77,593.60 654.18,579.12 658.01,571.32 C660.92,565.39 663.72,560.11 665.16,557.74 C666.22,556.73 666.86,556.34 667.41,556.41 C668.07,556.80 668.90,557.85 670.16,559.98 C672.38,564.03 676.43,571.89 681.39,581.75 C692.66,604.41 697.88,614.91 699.56,619.79 C700.43,622.89 699.73,624.00 697.58,624.00 C696.25,624.00 694.56,624.16 693.83,624.34 C693.10,624.53 690.57,624.42 688.20,624.09 ZM 614.19 610.49 C614.67,610.73 615.01,610.99 615.18,611.26 C616.32,613.04 616.18,619.80 614.96,622.07 C613.98,623.91 612.60,624.00 586.59,624.00 L 586.46 624.00 C560.66,624.00 559.00,623.89 559.00,622.20 C559.00,620.62 560.10,618.52 565.69,609.43 C573.92,596.06 588.57,571.35 588.79,570.45 C589.00,569.65 585.40,569.13 576.93,568.74 C573.48,568.58 570.22,568.31 567.81,568.02 C565.65,567.70 564.10,567.36 563.71,567.10 C563.28,566.52 563.44,565.02 563.94,563.30 C564.85,560.35 566.72,556.68 568.09,555.95 C569.07,555.43 580.23,555.00 592.93,555.00 C608.81,555.00 613.89,555.09 615.40,555.80 C615.88,556.04 615.99,556.35 615.98,556.75 L 615.98 556.75 C615.28,559.37 592.08,598.82 588.50,603.44 C585.17,607.75 586.33,608.65 596.15,609.35 C601.19,609.71 607.44,610.00 610.05,610.00 C612.00,610.00 613.33,610.15 614.19,610.49 ZM 635.69 621.55 C636.65,622.50 638.15,622.93 639.40,622.59 C640.55,622.28 642.53,622.02 643.79,622.01 C645.19,622.01 647.60,620.35 650.00,617.75 L 653.92 613.50 L 663.71 612.97 C676.32,612.28 679.36,613.08 682.57,617.93 C684.57,620.95 685.93,621.89 688.97,622.38 C697.06,623.67 698.48,620.63 693.94,611.75 C692.19,608.31 690.22,604.38 689.57,603.00 C688.92,601.62 687.48,598.70 686.37,596.50 C685.25,594.30 681.05,585.86 677.03,577.75 C669.48,562.54 668.00,560.40 665.64,561.31 C664.30,561.82 659.00,570.42 659.00,572.09 C659.00,572.55 656.60,577.33 653.67,582.71 C650.73,588.10 646.15,596.78 643.49,602.00 C640.83,607.22 637.90,612.62 636.99,614.00 C634.28,618.07 633.98,619.83 635.69,621.55 ZM 495.01 622.00 C500.23,622.28 511.22,622.36 519.44,622.19 C535.70,621.84 536.90,621.41 536.97,615.87 C537.02,611.38 534.80,610.56 521.11,610.01 C508.53,609.50 508.50,609.49 508.76,607.11 C508.91,605.79 509.58,603.70 510.26,602.46 C516.18,591.68 527.97,571.89 529.01,571.00 C530.93,569.36 535.08,560.57 534.81,558.71 C534.50,556.52 534.32,556.50 513.34,556.23 L 492.18 555.96 L 490.09 558.62 C485.94,563.89 488.44,567.00 496.82,567.01 C506.45,567.02 513.00,568.12 513.00,569.71 C513.00,571.36 511.71,573.66 496.28,599.46 C490.04,609.89 485.07,619.12 485.23,619.96 C485.46,621.17 487.53,621.61 495.01,622.00 ZM 562.67 621.33 C563.78,622.45 609.93,622.11 612.07,620.96 C614.52,619.65 614.63,614.86 612.25,612.79 C611.00,611.70 607.13,611.09 598.58,610.66 C592.02,610.33 586.28,609.68 585.81,609.21 C584.61,608.01 586.76,602.34 590.65,596.40 C592.49,593.59 594.00,591.00 594.00,590.64 C594.00,590.28 595.49,587.85 597.32,585.24 C603.17,576.87 612.17,560.14 611.82,558.29 C611.50,556.65 609.76,556.48 590.83,556.23 L 570.18 555.96 L 568.09 558.61 C565.62,561.75 565.59,562.05 567.36,564.48 C568.46,565.98 570.71,566.48 579.11,567.11 C584.82,567.54 589.61,567.91 589.75,567.94 C591.08,568.24 588.83,573.15 582.75,583.26 C578.76,589.89 574.82,596.48 573.99,597.91 C573.16,599.33 570.12,604.39 567.24,609.14 C562.17,617.49 561.26,619.93 562.67,621.33 ZM 366.63 621.75 C365.53,617.65 365.92,556.17 367.04,555.47 C368.76,554.41 381.10,554.84 382.51,556.01 C383.52,556.84 383.85,562.70 383.95,581.18 C384.02,595.05 384.50,606.06 385.07,607.13 C385.97,608.81 387.41,609.00 399.43,609.00 C399.80,609.00 400.16,609.00 400.52,609.00 C408.73,609.00 411.94,609.00 413.20,610.56 C414.01,611.57 414.00,613.22 414.00,615.94 C414.00,616.12 414.00,616.31 414.00,616.50 C414.00,616.94 414.00,617.35 414.01,617.74 C414.03,619.73 414.05,621.09 413.42,622.01 C412.07,624.02 407.73,624.02 393.98,624.00 C392.74,624.00 391.41,624.00 390.01,624.00 C367.24,624.00 367.23,624.00 366.63,621.75 ZM 373.32 622.26 C379.83,623.04 408.50,621.75 409.71,620.63 C411.11,619.32 411.73,612.99 410.63,611.21 C410.11,610.36 406.03,610.00 397.06,610.00 C387.47,610.00 383.96,609.66 383.12,608.64 C382.37,607.74 381.86,599.08 381.62,583.14 C381.35,565.82 380.89,558.58 380.00,557.50 C378.26,555.41 370.65,555.51 368.87,557.66 C367.76,559.00 367.56,565.01 367.82,589.39 C368.01,607.55 368.54,619.94 369.15,620.67 C369.70,621.34 371.58,622.06 373.32,622.26 ZM 440.69 623.29 C439.83,621.88 439.66,614.04 439.83,584.25 L 440.00 555.00 L 447.38 555.00 C452.40,555.00 455.12,555.44 455.89,556.37 C456.70,557.34 456.95,567.19 456.76,590.62 L 456.50 623.50 L 448.83 623.79 C444.62,623.95 440.95,623.73 440.69,623.29 ZM 442.75 620.92 C443.71,621.48 446.40,621.95 448.71,621.97 C455.29,622.02 455.35,621.71 455.10,589.02 C454.85,556.24 454.79,556.00 447.68,556.00 C445.32,556.00 442.86,556.54 442.20,557.20 C441.32,558.08 441.00,566.57 441.00,589.15 C441.00,617.38 441.14,619.98 442.75,620.92 ZM 414.67 693.33 C414.30,692.97 414.00,687.97 414.00,682.22 L 414.00 671.77 L 420.95 672.17 C424.36,672.36 426.90,672.81 428.74,673.66 C429.35,674.00 429.89,674.43 430.45,674.95 C431.23,675.68 431.91,676.65 432.37,677.61 C432.81,678.88 433.00,680.42 433.00,682.27 C433.00,684.84 432.84,686.27 432.06,687.63 C431.44,688.56 430.57,689.63 429.60,690.60 C426.57,693.63 425.61,694.00 420.77,694.00 C417.78,694.00 415.03,693.70 414.67,693.33 ZM 530.90 693.89 C530.39,693.76 529.97,693.34 529.69,692.64 C529.40,691.81 529.41,686.86 529.72,681.59 L 529.72 681.57 L 530.30 671.91 L 536.30 672.21 C541.48,672.46 542.57,672.87 544.32,675.21 C546.28,677.86 546.29,678.03 544.55,681.88 C542.94,685.45 542.92,686.12 544.26,688.81 C545.20,690.71 545.42,692.29 544.84,693.15 C544.15,694.19 543.01,693.47 539.94,690.08 C535.68,685.38 534.38,685.47 533.83,690.49 C533.58,692.76 532.09,694.16 530.90,693.89 ZM 582.55 690.76 C582.94,688.99 583.83,686.62 584.52,685.51 C585.21,684.41 586.53,681.16 587.45,678.30 C589.17,672.97 592.07,670.67 594.28,672.88 C595.49,674.09 602.03,689.65 602.32,692.00 C602.57,694.07 598.16,694.59 597.39,692.57 C596.56,690.41 587.46,690.35 586.64,692.50 C586.32,693.33 585.11,694.00 583.95,694.00 C582.09,694.00 581.93,693.61 582.55,690.76 ZM 607.43 692.67 C607.15,691.95 607.05,687.11 607.21,681.92 L 607.50 672.50 L 613.64 672.21 C614.10,672.18 614.52,672.16 614.91,672.15 C617.66,672.14 619.60,672.53 620.89,673.42 C621.17,673.70 621.45,674.03 621.75,674.42 L 622.41 675.24 C622.81,676.14 623.00,677.26 623.00,678.62 C623.00,680.68 622.21,682.51 620.82,683.89 C619.44,685.04 617.61,686.03 615.98,686.35 C613.64,686.82 612.98,687.59 612.44,690.46 C611.95,693.05 611.26,694.00 609.86,694.00 C608.80,694.00 607.71,693.40 607.43,692.67 ZM 629.18 693.11 C628.28,692.55 628.00,689.55 628.21,682.42 L 628.50 672.50 L 633.80 672.64 C635.75,672.69 637.36,672.92 638.66,673.34 C641.68,674.47 643.00,676.45 643.00,679.58 C643.00,681.29 642.14,683.07 640.88,684.46 L 640.87 684.47 C639.50,685.96 637.66,687.00 635.88,687.00 C635.02,687.00 634.25,687.57 633.77,688.52 C633.63,688.75 633.52,688.99 633.45,689.25 C633.10,690.39 632.44,691.79 631.93,692.52 C631.11,693.42 630.11,693.69 629.18,693.11 ZM 509.71 693.37 C508.85,692.51 508.79,677.52 509.63,674.25 L 509.63 674.25 C509.63,674.23 509.64,674.22 509.64,674.21 C510.00,672.89 510.45,672.35 512.25,672.13 C513.18,672.07 514.46,672.12 516.30,672.21 C520.13,672.39 522.52,673.15 522.89,673.96 C522.84,674.31 522.51,674.70 521.88,675.10 C521.82,675.14 521.75,675.17 521.67,675.21 C521.25,675.36 520.74,675.50 520.11,675.63 C519.72,675.71 519.38,675.78 519.09,675.85 C518.46,675.93 517.80,675.98 517.18,675.98 C514.31,676.00 513.90,676.31 514.18,678.25 C514.42,679.93 515.33,680.63 517.79,681.00 C519.60,681.28 521.08,681.95 521.08,682.50 C521.08,683.05 519.60,683.72 517.79,684.00 C515.08,684.41 514.50,684.94 514.50,687.00 C514.50,689.28 514.93,689.53 519.31,689.81 C523.18,690.05 524.05,690.43 523.81,691.78 C523.52,693.17 522.19,693.56 516.95,693.79 C513.35,693.95 510.10,693.76 509.71,693.37 ZM 440.76 672.50 L 445.00 672.50 C450.11,672.50 451.50,672.82 451.50,674.00 C451.50,675.05 450.22,675.59 447.25,675.81 C443.53,676.08 443.00,676.41 443.00,678.50 C443.00,680.53 443.55,680.93 446.75,681.19 C449.28,681.40 450.50,681.99 450.50,683.00 C450.50,684.01 449.28,684.60 446.75,684.81 C443.53,685.08 443.00,685.46 443.00,687.56 C443.00,689.42 443.54,690.00 445.25,690.01 C446.80,690.02 448.20,690.21 449.32,690.54 C449.37,690.55 449.42,690.57 449.48,690.58 C450.22,690.81 450.83,691.09 451.27,691.42 C451.72,691.79 452.00,692.22 452.00,692.61 C452.00,693.65 450.39,694.00 445.52,694.00 C441.72,694.00 440.10,693.91 439.29,693.30 C438.82,692.90 438.63,692.26 438.40,691.25 C438.39,691.20 438.38,691.15 438.36,691.09 C438.14,689.26 438.06,685.07 438.20,681.00 L 438.46 673.69 C438.92,673.02 439.55,672.70 440.76,672.50 ZM 492.82 691.75 C490.86,688.22 487.05,676.74 487.03,674.25 L 487.03 674.25 C487.01,672.71 487.59,672.00 488.88,672.00 C489.00,672.00 489.12,672.01 489.24,672.02 C490.00,672.36 490.85,673.17 491.57,674.37 C492.25,675.77 492.99,677.95 494.00,681.25 C494.64,683.31 495.54,685.00 496.01,685.00 C496.48,685.00 497.68,682.45 498.68,679.34 C499.42,677.04 500.32,675.16 501.23,673.86 C502.33,672.59 503.52,671.88 504.26,672.04 C504.40,672.10 504.53,672.20 504.65,672.32 C505.08,672.74 504.19,676.36 502.80,680.55 C501.55,684.06 500.00,688.01 498.90,690.48 C497.28,693.69 495.26,694.58 493.66,692.93 C493.36,692.61 493.08,692.22 492.82,691.75 ZM 557.40 693.23 C556.79,692.83 556.04,690.52 555.72,688.10 C555.41,685.67 554.27,682.51 553.20,681.06 C552.13,679.61 550.93,676.98 550.55,675.21 C550.14,673.36 550.37,672.30 550.98,672.01 C551.02,672.00 551.05,672.00 551.09,672.00 C551.54,672.00 552.29,672.32 553.04,672.80 C553.71,673.40 554.44,674.32 555.16,675.54 C557.51,679.53 558.91,679.57 560.80,675.68 C561.36,674.54 562.33,673.70 563.29,673.28 C564.82,673.00 565.68,673.14 565.92,673.81 C565.96,673.94 565.99,674.09 566.00,674.25 C566.00,674.32 566.00,674.40 565.99,674.49 C565.88,675.39 564.78,677.99 563.46,680.47 C562.07,683.09 560.66,687.21 560.33,689.62 C559.72,694.08 559.35,694.54 557.40,693.23 ZM 418.36 677.52 C418.18,677.97 418.12,679.10 418.15,680.53 C417.97,681.65 418.03,683.00 418.41,684.50 C418.44,684.60 418.46,684.70 418.49,684.80 C419.10,689.59 419.39,690.00 421.74,690.00 C423.17,690.00 425.17,689.26 426.17,688.35 C428.46,686.27 428.62,679.76 426.43,677.57 C424.41,675.55 419.12,675.51 418.36,677.52 ZM 671.91 601.61 C670.47,603.35 662.61,603.45 661.24,601.75 C659.80,599.96 660.89,594.41 663.06,592.44 C666.03,589.76 669.49,591.27 671.42,596.10 C672.68,599.25 672.80,600.54 671.91,601.61 ZM 458.45 692.73 C458.16,691.97 458.05,687.11 458.21,681.92 C458.44,674.34 458.79,672.50 460.00,672.50 C460.53,672.50 460.94,672.89 461.28,673.82 C461.52,674.61 461.66,675.81 461.75,677.50 C461.88,680.25 462.25,684.41 462.56,686.75 C463.12,690.95 463.17,691.00 467.14,691.00 C469.92,691.00 471.04,691.39 470.75,692.25 C470.15,694.09 459.14,694.52 458.45,692.73 ZM 477.67 693.33 C477.30,692.97 477.00,687.99 477.00,682.26 C477.00,672.05 477.04,671.87 479.25,672.18 C481.35,672.48 481.52,673.05 481.80,681.00 C481.96,685.67 481.84,690.51 481.53,691.75 C480.98,693.92 479.05,694.71 477.67,693.33 ZM 671.00 599.22 C671.00,595.95 668.50,592.00 666.43,592.00 C664.58,592.00 661.51,598.29 662.33,600.41 C662.75,601.50 664.21,602.00 666.97,602.00 C670.71,602.00 671.00,601.80 671.00,599.22 ZM 637.07 681.96 C639.84,680.48 639.54,677.17 636.56,676.42 C633.41,675.63 632.00,676.55 632.00,679.39 C632.00,683.06 633.55,683.85 637.07,681.96 ZM 771.68 462.38 C770.38,458.01 767.80,458.16 756.64,457.81 C749.83,457.59 745.26,457.23 741.74,456.05 C740.07,455.48 738.62,454.73 737.27,453.71 C741.14,456.39 746.03,456.68 755.79,456.56 C764.89,456.44 769.38,456.76 770.05,457.56 C770.57,458.18 771.12,459.90 771.68,462.38 ZM 539.42 681.39 C541.91,680.44 541.34,677.12 538.56,676.42 C535.58,675.68 534.00,676.53 534.00,678.89 C534.00,681.87 535.90,682.74 539.42,681.39 ZM 616.84 682.12 C617.57,681.66 618.02,680.20 617.84,678.89 C617.42,675.90 612.73,675.42 612.18,678.31 C611.42,682.24 613.70,684.11 616.84,682.12 ZM 528.00 392.67 L 518.80 392.72 C509.06,392.78 500.63,393.11 500.05,393.47 C499.56,393.77 499.24,402.93 499.08,415.02 C499.20,395.36 499.54,392.01 500.62,391.59 C502.85,390.74 511.00,390.86 511.00,391.75 C511.00,392.16 516.74,392.55 523.75,392.62 C525.35,392.63 526.75,392.64 528.00,392.67 ZM 595.00 685.00 C595.00,684.52 594.55,682.95 594.00,681.50 C592.79,678.31 591.00,679.11 591.00,682.85 C591.00,684.86 591.53,685.61 593.00,685.73 C594.10,685.81 595.00,685.48 595.00,685.00 ZM 492.90 814.56 C489.28,814.31 486.08,814.01 483.50,813.65 C465.44,811.15 448.28,807.49 431.84,802.59 C450.66,808.07 470.75,811.97 492.90,814.56 ZM 591.33 809.15 C587.65,809.95 584.32,810.58 581.50,811.00 C577.65,811.57 569.55,812.78 563.50,813.69 C556.05,814.80 542.29,815.40 527.87,815.48 C542.57,815.12 558.48,814.37 564.00,813.57 C579.51,811.31 585.47,810.40 591.33,809.15 ZM 238.41 383.75 C232.79,395.69 227.84,408.74 223.65,422.68 C228.27,407.29 232.68,395.55 238.41,383.75 ZM 638.52 795.39 C638.18,795.52 637.84,795.64 637.50,795.77 C625.26,800.26 609.08,805.01 595.91,808.11 C596.87,807.88 597.88,807.64 598.98,807.37 C611.88,804.21 626.87,799.59 638.52,795.39 ZM 499.09 453.73 C499.25,465.29 499.57,474.14 500.03,475.06 L 500.01 475.03 C499.53,474.13 499.22,466.90 499.09,453.73 ZM 5.67 1015.25 C5.65,1015.15 5.63,1014.02 5.61,1011.91 C5.63,1013.99 5.65,1015.15 5.67,1015.27 L 6.10 1017.34 Z" fill="rgb(241,187,89)"/>
<path d="M 0.00 511.50 L 0.00 0.00 L 512.50 0.00 L 1025.00 0.00 L 1025.00 511.50 L 1025.00 1023.00 L 512.50 1023.00 L 0.00 1023.00 L 0.00 511.50 ZM 1020.00 511.00 L 1020.00 4.00 L 512.49 4.00 L 4.99 4.00 L 5.05 508.25 C5.08,785.59 5.36,1013.74 5.67,1015.25 L 6.23 1018.00 L 513.12 1018.00 L 1020.00 1018.00 L 1020.00 511.00 ZM 500.50 815.40 C439.27,809.16 393.86,793.61 348.25,763.27 C335.15,754.55 331.49,751.70 314.80,737.21 C295.12,720.11 270.24,691.19 258.29,671.49 C248.05,654.63 236.36,631.78 231.16,618.50 C215.03,577.30 208.10,526.23 212.49,480.89 C214.87,456.27 217.17,444.26 223.65,422.68 C230.82,398.80 240.23,377.55 251.41,360.00 C258.51,348.85 265.89,337.93 268.97,334.00 C307.28,285.14 352.67,250.46 405.50,229.71 C444.77,214.29 479.98,208.03 527.50,208.03 C554.97,208.04 575.22,210.29 600.50,216.15 C620.59,220.82 650.61,231.74 666.50,240.17 C668.70,241.34 672.68,243.38 675.35,244.70 C688.20,251.06 706.78,263.20 721.50,274.86 C758.36,304.03 789.54,343.25 807.46,383.00 C815.05,399.83 814.59,398.73 816.95,405.50 C818.11,408.80 819.48,412.40 820.00,413.50 C820.53,414.60 822.54,421.20 824.47,428.16 C839.56,482.44 839.71,538.71 824.91,592.19 C820.95,606.50 816.53,618.18 808.61,635.27 C806.62,639.55 805.00,643.31 805.00,643.63 C805.00,644.73 790.65,668.50 785.15,676.50 C762.03,710.15 730.44,741.58 697.00,764.19 C687.97,770.30 662.13,785.00 660.43,785.00 C659.99,785.00 658.70,785.85 657.56,786.89 C653.21,790.89 622.60,801.59 598.98,807.37 C588.72,809.88 585.75,810.41 564.00,813.57 C553.94,815.03 509.49,816.31 500.50,815.40 ZM 548.50 757.53 C583.32,753.97 612.87,744.58 645.50,726.72 C651.84,723.24 653.35,722.32 664.50,715.09 C699.35,692.51 733.26,653.51 751.95,614.50 C759.03,599.73 760.68,595.57 765.24,581.00 C772.65,557.28 775.96,534.95 775.97,508.50 C775.99,489.77 772.60,460.63 770.05,457.56 C769.38,456.76 764.89,456.44 755.79,456.56 C738.58,456.77 736.52,455.72 728.49,442.50 L 724.84 436.50 L 725.17 424.50 L 725.50 412.50 L 714.50 411.87 C701.70,411.14 699.87,410.53 691.27,404.22 C685.68,400.11 684.34,398.46 680.86,391.33 C677.38,384.20 676.71,381.69 675.68,371.82 L 674.50 360.50 L 671.00 361.00 C669.08,361.27 664.96,361.44 661.85,361.37 C651.35,361.12 640.50,352.85 636.65,342.16 C635.20,338.12 634.89,334.96 635.20,327.27 C635.56,318.23 635.94,316.69 640.34,306.59 C642.96,300.60 644.88,295.13 644.62,294.45 C644.36,293.77 641.52,291.98 638.32,290.48 C635.12,288.98 629.35,286.27 625.50,284.47 C607.13,275.85 588.34,270.34 561.00,265.52 C549.05,263.42 515.48,262.53 498.15,263.86 C490.25,264.46 479.68,265.90 474.65,267.07 C457.42,271.05 449.50,273.09 446.00,274.45 C444.08,275.20 439.35,276.82 435.50,278.04 C427.49,280.60 397.34,294.82 391.80,298.65 C389.76,300.05 386.78,301.95 385.17,302.85 C380.21,305.65 371.76,311.65 366.00,316.48 C362.98,319.01 357.80,323.28 354.50,325.97 C343.68,334.79 315.81,365.71 311.93,373.20 C311.28,374.46 307.65,380.48 303.87,386.57 C300.09,392.66 297.00,397.99 297.00,398.42 C297.00,398.84 296.16,400.39 295.14,401.85 C294.12,403.31 292.71,406.30 292.01,408.50 C291.31,410.70 290.44,412.95 290.07,413.50 C289.71,414.05 288.39,417.20 287.13,420.50 C285.88,423.80 284.26,427.89 283.52,429.59 C281.35,434.62 275.94,456.32 273.40,470.25 C271.31,481.73 270.45,519.12 271.89,536.25 C273.72,557.94 281.05,585.79 290.61,607.37 C296.25,620.08 306.57,639.86 308.96,642.50 C309.95,643.60 311.47,645.85 312.33,647.50 C313.18,649.15 316.05,653.14 318.69,656.36 C321.34,659.59 325.00,664.31 326.84,666.86 C331.85,673.83 348.05,689.95 361.00,700.86 C371.43,709.64 391.96,723.93 396.63,725.66 C397.66,726.04 400.26,727.45 402.40,728.79 C412.41,735.02 440.50,745.94 463.00,752.33 C468.49,753.89 492.49,757.66 501.00,758.31 C512.76,759.20 535.87,758.82 548.50,757.53 ZM 373.32 622.26 C371.58,622.06 369.70,621.34 369.15,620.67 C368.54,619.94 368.01,607.55 367.82,589.39 C367.56,565.01 367.76,559.00 368.87,557.66 C370.65,555.51 378.26,555.41 380.00,557.50 C380.89,558.58 381.35,565.82 381.62,583.14 C381.86,599.08 382.37,607.74 383.12,608.64 C383.96,609.66 387.47,610.00 397.06,610.00 C406.03,610.00 410.11,610.36 410.63,611.21 C411.73,612.99 411.11,619.32 409.71,620.63 C408.50,621.75 379.83,623.04 373.32,622.26 ZM 495.01 622.00 C487.53,621.61 485.46,621.17 485.23,619.96 C485.07,619.12 490.04,609.89 496.28,599.46 C511.71,573.66 513.00,571.36 513.00,569.71 C513.00,568.12 506.45,567.02 496.82,567.01 C488.44,567.00 485.94,563.89 490.09,558.62 L 492.18 555.96 L 513.34 556.23 C534.32,556.50 534.50,556.52 534.81,558.71 C535.08,560.57 530.93,569.36 529.01,571.00 C527.97,571.89 516.18,591.68 510.26,602.46 C509.58,603.70 508.91,605.79 508.76,607.11 C508.50,609.49 508.53,609.50 521.11,610.01 C534.80,610.56 537.02,611.38 536.97,615.87 C536.90,621.41 535.70,621.84 519.44,622.19 C511.22,622.36 500.23,622.28 495.01,622.00 ZM 635.69 621.55 C633.98,619.83 634.28,618.07 636.99,614.00 C637.90,612.62 640.83,607.22 643.49,602.00 C646.15,596.78 650.73,588.10 653.67,582.71 C656.60,577.33 659.00,572.55 659.00,572.09 C659.00,570.42 664.30,561.82 665.64,561.31 C668.00,560.40 669.48,562.54 677.03,577.75 C681.05,585.86 685.25,594.30 686.37,596.50 C687.48,598.70 688.92,601.62 689.57,603.00 C690.22,604.38 692.19,608.31 693.94,611.75 C698.48,620.63 697.06,623.67 688.97,622.38 C685.93,621.89 684.57,620.95 682.57,617.93 C679.36,613.08 676.32,612.28 663.71,612.97 L 653.92 613.50 L 650.00 617.75 C647.60,620.35 645.19,622.01 643.79,622.01 C642.53,622.02 640.55,622.28 639.40,622.59 C638.15,622.93 636.65,622.50 635.69,621.55 ZM 671.91 601.61 C672.80,600.54 672.68,599.25 671.42,596.10 C669.49,591.27 666.03,589.76 663.06,592.44 C660.89,594.41 659.80,599.96 661.24,601.75 C662.61,603.45 670.47,603.35 671.91,601.61 ZM 442.75 620.92 C441.14,619.98 441.00,617.38 441.00,589.15 C441.00,566.57 441.32,558.08 442.20,557.20 C442.86,556.54 445.32,556.00 447.68,556.00 C454.79,556.00 454.85,556.24 455.10,589.02 C455.35,621.71 455.29,622.02 448.71,621.97 C446.40,621.95 443.71,621.48 442.75,620.92 ZM 562.67 621.33 C561.26,619.93 562.17,617.49 567.24,609.14 C570.12,604.39 573.16,599.33 573.99,597.91 C574.82,596.48 578.76,589.89 582.75,583.26 C588.83,573.15 591.08,568.24 589.75,567.94 C589.61,567.91 584.82,567.54 579.11,567.11 C570.71,566.48 568.46,565.98 567.36,564.48 C565.59,562.05 565.62,561.75 568.09,558.61 L 570.18 555.96 L 590.83 556.23 C609.76,556.48 611.50,556.65 611.82,558.29 C612.17,560.14 603.17,576.87 597.32,585.24 C595.49,587.85 594.00,590.28 594.00,590.64 C594.00,591.00 592.49,593.59 590.65,596.40 C586.76,602.34 584.61,608.01 585.81,609.21 C586.28,609.68 592.02,610.33 598.58,610.66 C607.13,611.09 611.00,611.70 612.25,612.79 C614.63,614.86 614.52,619.65 612.07,620.96 C609.93,622.11 563.78,622.45 562.67,621.33 ZM 475.19 502.73 C474.27,501.62 474.05,485.46 474.24,434.39 L 474.50 367.50 L 507.00 367.50 C543.59,367.51 545.12,367.73 558.73,375.17 C568.11,380.29 575.60,386.45 580.59,393.14 C585.47,399.67 590.00,407.39 590.01,409.18 C590.01,409.91 590.76,411.85 591.67,413.50 C593.75,417.28 594.70,439.82 593.14,448.24 C588.70,472.14 571.38,491.32 545.43,501.09 C539.86,503.18 537.57,503.35 507.95,503.75 C481.20,504.12 476.21,503.96 475.19,502.73 ZM 541.24 474.93 C552.03,470.80 561.71,461.15 566.26,450.00 C568.09,445.51 568.50,442.57 568.50,434.00 C568.50,424.21 568.28,423.06 565.30,416.95 C560.72,407.61 554.04,401.06 544.43,396.50 C536.61,392.79 536.32,392.73 523.75,392.62 C516.74,392.55 511.00,392.16 511.00,391.75 C511.00,390.86 502.85,390.74 500.62,391.59 C499.28,392.11 499.08,397.18 499.02,432.62 C498.98,459.20 499.32,473.73 500.01,475.03 C501.00,476.87 502.18,477.00 518.45,477.00 C533.62,477.00 536.51,476.74 541.24,474.93 ZM 539.55 430.75 C539.34,430.06 538.91,425.34 538.60,420.25 C538.06,411.68 538.16,411.00 539.89,411.00 C542.58,411.00 543.91,413.05 545.17,419.14 C546.17,424.02 546.07,424.84 544.04,428.25 C541.74,432.10 540.23,432.95 539.55,430.75 ZM 548.64 427.40 C547.71,420.61 547.86,411.00 548.89,411.00 C549.38,411.00 550.79,411.82 552.02,412.81 C555.19,415.38 555.81,423.25 553.22,427.95 C550.51,432.87 549.37,432.73 548.64,427.40 Z" fill="rgb(252,251,243)"/>
</g>
</svg>